<svg xmlns="http://www.w3.org/2000/svg" xmlns:xlink="http://www.w3.org/1999/xlink" width="800" zoomAndPan="magnify" viewBox="0 0 600 89.999999" height="120" preserveAspectRatio="xMidYMid meet" version="1.2"><defs><clipPath id="c080fb615e"><path d="M 132.402344 5.339844 L 208.152344 5.339844 L 208.152344 81 L 132.402344 81 Z M 132.402344 5.339844 "/></clipPath></defs><g id="37d2bbedee"><g style="fill:#f8f6f2;fill-opacity:1;"><g transform="translate(212.669963, 78.749998)"><path style="stroke:none" d="M 24.546875 -10.859375 C 26.554688 -10.859375 28.210938 -11.023438 29.515625 -11.359375 C 30.828125 -11.691406 31.878906 -12.144531 32.671875 -12.71875 C 33.460938 -13.300781 34.007812 -13.988281 34.3125 -14.78125 C 34.613281 -15.570312 34.765625 -16.453125 34.765625 -17.421875 C 34.765625 -19.492188 33.789062 -21.210938 31.84375 -22.578125 C 29.894531 -23.953125 26.550781 -25.429688 21.8125 -27.015625 C 19.738281 -27.742188 17.664062 -28.578125 15.59375 -29.515625 C 13.53125 -30.460938 11.675781 -31.648438 10.03125 -33.078125 C 8.394531 -34.503906 7.054688 -36.238281 6.015625 -38.28125 C 4.984375 -40.320312 4.46875 -42.800781 4.46875 -45.71875 C 4.46875 -48.632812 5.015625 -51.265625 6.109375 -53.609375 C 7.203125 -55.953125 8.753906 -57.941406 10.765625 -59.578125 C 12.773438 -61.222656 15.207031 -62.488281 18.0625 -63.375 C 20.925781 -64.257812 24.148438 -64.703125 27.734375 -64.703125 C 31.992188 -64.703125 35.675781 -64.242188 38.78125 -63.328125 C 41.882812 -62.410156 44.441406 -61.40625 46.453125 -60.3125 L 42.34375 -49.09375 C 40.570312 -50.007812 38.609375 -50.816406 36.453125 -51.515625 C 34.296875 -52.210938 31.695312 -52.5625 28.65625 -52.5625 C 25.25 -52.5625 22.800781 -52.085938 21.3125 -51.140625 C 19.820312 -50.203125 19.078125 -48.757812 19.078125 -46.8125 C 19.078125 -45.65625 19.347656 -44.679688 19.890625 -43.890625 C 20.441406 -43.097656 21.21875 -42.378906 22.21875 -41.734375 C 23.21875 -41.097656 24.375 -40.519531 25.6875 -40 C 27 -39.488281 28.441406 -38.960938 30.015625 -38.421875 C 33.304688 -37.203125 36.164062 -36 38.59375 -34.8125 C 41.03125 -33.625 43.050781 -32.238281 44.65625 -30.65625 C 46.269531 -29.070312 47.472656 -27.21875 48.265625 -25.09375 C 49.054688 -22.96875 49.453125 -20.382812 49.453125 -17.34375 C 49.453125 -11.4375 47.382812 -6.851562 43.25 -3.59375 C 39.113281 -0.34375 32.878906 1.28125 24.546875 1.28125 C 21.742188 1.28125 19.21875 1.113281 16.96875 0.78125 C 14.71875 0.445312 12.722656 0.0351562 10.984375 -0.453125 C 9.253906 -0.941406 7.765625 -1.457031 6.515625 -2 C 5.273438 -2.550781 4.226562 -3.070312 3.375 -3.5625 L 7.390625 -14.875 C 9.273438 -13.84375 11.601562 -12.914062 14.375 -12.09375 C 17.144531 -11.269531 20.535156 -10.859375 24.546875 -10.859375 Z M 24.546875 -10.859375 "/></g></g><g style="fill:#f8f6f2;fill-opacity:1;"><g transform="translate(265.772881, 78.749998)"><path style="stroke:none" d="M 19.984375 0 L 6.390625 0 L 6.390625 -48 L 19.984375 -48 Z M 21.265625 -61.875 C 21.265625 -59.375 20.457031 -57.410156 18.84375 -55.984375 C 17.226562 -54.554688 15.328125 -53.84375 13.140625 -53.84375 C 10.953125 -53.84375 9.050781 -54.554688 7.4375 -55.984375 C 5.820312 -57.410156 5.015625 -59.375 5.015625 -61.875 C 5.015625 -64.363281 5.820312 -66.320312 7.4375 -67.75 C 9.050781 -69.175781 10.953125 -69.890625 13.140625 -69.890625 C 15.328125 -69.890625 17.226562 -69.175781 18.84375 -67.75 C 20.457031 -66.320312 21.265625 -64.363281 21.265625 -61.875 Z M 21.265625 -61.875 "/></g></g><g style="fill:#f8f6f2;fill-opacity:1;"><g transform="translate(292.141852, 78.749998)"><path style="stroke:none" d="M 38.140625 -52.28125 C 31.515625 -52.28125 26.722656 -50.441406 23.765625 -46.765625 C 20.816406 -43.085938 19.34375 -38.050781 19.34375 -31.65625 C 19.34375 -28.5625 19.707031 -25.75 20.4375 -23.21875 C 21.164062 -20.695312 22.257812 -18.523438 23.71875 -16.703125 C 25.1875 -14.878906 27.015625 -13.460938 29.203125 -12.453125 C 31.390625 -11.453125 33.941406 -10.953125 36.859375 -10.953125 C 38.441406 -10.953125 39.796875 -10.976562 40.921875 -11.03125 C 42.046875 -11.09375 43.035156 -11.21875 43.890625 -11.40625 L 43.890625 -33.390625 L 58.125 -33.390625 L 58.125 -2.09375 C 56.425781 -1.425781 53.6875 -0.710938 49.90625 0.046875 C 46.132812 0.804688 41.484375 1.1875 35.953125 1.1875 C 31.203125 1.1875 26.894531 0.457031 23.03125 -1 C 19.175781 -2.457031 15.878906 -4.585938 13.140625 -7.390625 C 10.398438 -10.191406 8.285156 -13.628906 6.796875 -17.703125 C 5.304688 -21.773438 4.5625 -26.425781 4.5625 -31.65625 C 4.5625 -36.957031 5.378906 -41.644531 7.015625 -45.71875 C 8.660156 -49.789062 10.910156 -53.238281 13.765625 -56.0625 C 16.628906 -58.894531 19.992188 -61.039062 23.859375 -62.5 C 27.722656 -63.96875 31.84375 -64.703125 36.21875 -64.703125 C 39.207031 -64.703125 41.898438 -64.503906 44.296875 -64.109375 C 46.703125 -63.710938 48.769531 -63.253906 50.5 -62.734375 C 52.238281 -62.210938 53.671875 -61.675781 54.796875 -61.125 C 55.921875 -60.582031 56.726562 -60.160156 57.21875 -59.859375 L 53.109375 -48.453125 C 51.160156 -49.484375 48.921875 -50.378906 46.390625 -51.140625 C 43.867188 -51.898438 41.117188 -52.28125 38.140625 -52.28125 Z M 38.140625 -52.28125 "/></g></g><g style="fill:#f8f6f2;fill-opacity:1;"><g transform="translate(356.193824, 78.749998)"><path style="stroke:none" d="M 35.3125 -35.953125 C 34.09375 -36.253906 32.660156 -36.570312 31.015625 -36.90625 C 29.378906 -37.238281 27.617188 -37.40625 25.734375 -37.40625 C 24.878906 -37.40625 23.859375 -37.328125 22.671875 -37.171875 C 21.484375 -37.023438 20.585938 -36.863281 19.984375 -36.6875 L 19.984375 0 L 6.390625 0 L 6.390625 -45.4375 C 8.816406 -46.289062 11.6875 -47.097656 15 -47.859375 C 18.320312 -48.617188 22.019531 -49 26.09375 -49 C 26.820312 -49 27.703125 -48.953125 28.734375 -48.859375 C 29.773438 -48.773438 30.8125 -48.65625 31.84375 -48.5 C 32.875 -48.34375 33.90625 -48.15625 34.9375 -47.9375 C 35.976562 -47.726562 36.863281 -47.472656 37.59375 -47.171875 Z M 35.3125 -35.953125 "/></g></g><g style="fill:#f8f6f2;fill-opacity:1;"><g transform="translate(394.698007, 78.749998)"><path style="stroke:none" d="M 24.734375 -9.484375 C 26.066406 -9.484375 27.34375 -9.515625 28.5625 -9.578125 C 29.78125 -9.640625 30.753906 -9.734375 31.484375 -9.859375 L 31.484375 -20.171875 C 30.929688 -20.285156 30.109375 -20.40625 29.015625 -20.53125 C 27.921875 -20.65625 26.914062 -20.71875 26 -20.71875 C 24.726562 -20.71875 23.53125 -20.640625 22.40625 -20.484375 C 21.28125 -20.328125 20.289062 -20.035156 19.4375 -19.609375 C 18.582031 -19.191406 17.910156 -18.617188 17.421875 -17.890625 C 16.941406 -17.160156 16.703125 -16.242188 16.703125 -15.140625 C 16.703125 -13.015625 17.414062 -11.539062 18.84375 -10.71875 C 20.269531 -9.894531 22.234375 -9.484375 24.734375 -9.484375 Z M 23.640625 -49.28125 C 27.648438 -49.28125 30.992188 -48.820312 33.671875 -47.90625 C 36.347656 -46.988281 38.488281 -45.675781 40.09375 -43.96875 C 41.707031 -42.269531 42.847656 -40.203125 43.515625 -37.765625 C 44.191406 -35.335938 44.53125 -32.632812 44.53125 -29.65625 L 44.53125 -1.375 C 42.582031 -0.945312 39.875 -0.445312 36.40625 0.125 C 32.9375 0.707031 28.738281 1 23.8125 1 C 20.707031 1 17.894531 0.722656 15.375 0.171875 C 12.851562 -0.367188 10.675781 -1.257812 8.84375 -2.5 C 7.019531 -3.75 5.617188 -5.378906 4.640625 -7.390625 C 3.671875 -9.398438 3.1875 -11.863281 3.1875 -14.78125 C 3.1875 -17.582031 3.75 -19.953125 4.875 -21.890625 C 6 -23.835938 7.503906 -25.390625 9.390625 -26.546875 C 11.285156 -27.703125 13.445312 -28.539062 15.875 -29.0625 C 18.3125 -29.582031 20.835938 -29.84375 23.453125 -29.84375 C 25.210938 -29.84375 26.773438 -29.765625 28.140625 -29.609375 C 29.515625 -29.453125 30.628906 -29.253906 31.484375 -29.015625 L 31.484375 -30.296875 C 31.484375 -32.609375 30.78125 -34.460938 29.375 -35.859375 C 27.976562 -37.253906 25.546875 -37.953125 22.078125 -37.953125 C 19.765625 -37.953125 17.484375 -37.785156 15.234375 -37.453125 C 12.984375 -37.117188 11.039062 -36.648438 9.40625 -36.046875 L 7.671875 -47 C 8.453125 -47.238281 9.4375 -47.492188 10.625 -47.765625 C 11.8125 -48.046875 13.101562 -48.289062 14.5 -48.5 C 15.90625 -48.707031 17.382812 -48.890625 18.9375 -49.046875 C 20.488281 -49.203125 22.054688 -49.28125 23.640625 -49.28125 Z M 23.640625 -49.28125 "/></g></g><g style="fill:#f8f6f2;fill-opacity:1;"><g transform="translate(445.15489, 78.749998)"><path style="stroke:none" d="M 17.96875 -24.359375 C 17.96875 -20.160156 18.910156 -16.785156 20.796875 -14.234375 C 22.691406 -11.679688 25.492188 -10.40625 29.203125 -10.40625 C 30.421875 -10.40625 31.546875 -10.445312 32.578125 -10.53125 C 33.609375 -10.625 34.457031 -10.734375 35.125 -10.859375 L 35.125 -35.59375 C 34.28125 -36.132812 33.171875 -36.585938 31.796875 -36.953125 C 30.429688 -37.316406 29.050781 -37.5 27.65625 -37.5 C 21.195312 -37.5 17.96875 -33.117188 17.96875 -24.359375 Z M 48.734375 -1.546875 C 47.515625 -1.179688 46.113281 -0.832031 44.53125 -0.5 C 42.945312 -0.164062 41.285156 0.117188 39.546875 0.359375 C 37.816406 0.609375 36.054688 0.804688 34.265625 0.953125 C 32.472656 1.109375 30.753906 1.1875 29.109375 1.1875 C 25.148438 1.1875 21.617188 0.609375 18.515625 -0.546875 C 15.421875 -1.703125 12.804688 -3.359375 10.671875 -5.515625 C 8.546875 -7.679688 6.921875 -10.296875 5.796875 -13.359375 C 4.671875 -16.429688 4.109375 -19.882812 4.109375 -23.71875 C 4.109375 -27.613281 4.59375 -31.128906 5.5625 -34.265625 C 6.539062 -37.398438 7.941406 -40.0625 9.765625 -42.25 C 11.585938 -44.4375 13.820312 -46.109375 16.46875 -47.265625 C 19.113281 -48.421875 22.140625 -49 25.546875 -49 C 27.429688 -49 29.117188 -48.816406 30.609375 -48.453125 C 32.097656 -48.085938 33.601562 -47.570312 35.125 -46.90625 L 35.125 -68.625 L 48.734375 -70.8125 Z M 48.734375 -1.546875 "/></g></g><g style="fill:#f8f6f2;fill-opacity:1;"><g transform="translate(500.265148, 78.749998)"><path style="stroke:none" d="M 4.109375 -23.640625 C 4.109375 -27.890625 4.757812 -31.613281 6.0625 -34.8125 C 7.375 -38.007812 9.09375 -40.671875 11.21875 -42.796875 C 13.351562 -44.921875 15.800781 -46.53125 18.5625 -47.625 C 21.332031 -48.726562 24.175781 -49.28125 27.09375 -49.28125 C 33.914062 -49.28125 39.300781 -47.195312 43.25 -43.03125 C 47.207031 -38.863281 49.1875 -32.734375 49.1875 -24.640625 C 49.1875 -23.847656 49.15625 -22.976562 49.09375 -22.03125 C 49.03125 -21.09375 48.96875 -20.257812 48.90625 -19.53125 L 18.0625 -19.53125 C 18.375 -16.726562 19.679688 -14.503906 21.984375 -12.859375 C 24.296875 -11.222656 27.398438 -10.40625 31.296875 -10.40625 C 33.796875 -10.40625 36.242188 -10.628906 38.640625 -11.078125 C 41.046875 -11.535156 43.007812 -12.101562 44.53125 -12.78125 L 46.359375 -1.734375 C 45.628906 -1.367188 44.65625 -1.003906 43.4375 -0.640625 C 42.21875 -0.273438 40.863281 0.0390625 39.375 0.3125 C 37.882812 0.59375 36.285156 0.820312 34.578125 1 C 32.878906 1.1875 31.175781 1.28125 29.46875 1.28125 C 25.15625 1.28125 21.398438 0.640625 18.203125 -0.640625 C 15.003906 -1.921875 12.359375 -3.671875 10.265625 -5.890625 C 8.171875 -8.109375 6.617188 -10.738281 5.609375 -13.78125 C 4.609375 -16.820312 4.109375 -20.109375 4.109375 -23.640625 Z M 36.046875 -28.828125 C 35.984375 -29.984375 35.785156 -31.109375 35.453125 -32.203125 C 35.117188 -33.304688 34.597656 -34.28125 33.890625 -35.125 C 33.191406 -35.976562 32.3125 -36.675781 31.25 -37.21875 C 30.1875 -37.769531 28.863281 -38.046875 27.28125 -38.046875 C 25.757812 -38.046875 24.453125 -37.785156 23.359375 -37.265625 C 22.265625 -36.753906 21.351562 -36.070312 20.625 -35.21875 C 19.894531 -34.363281 19.332031 -33.375 18.9375 -32.25 C 18.539062 -31.125 18.25 -29.984375 18.0625 -28.828125 Z M 36.046875 -28.828125 "/></g></g><g clip-rule="nonzero" clip-path="url(#c080fb615e)"><path style=" stroke:none;fill-rule:nonzero;fill:#865be2;fill-opacity:1;" d="M 208.050781 80.992188 C 204.609375 76.167969 190.367188 80.992188 170.222656 80.992188 C 149.339844 80.992188 132.402344 64.054688 132.402344 43.171875 C 132.402344 22.28125 149.339844 5.34375 170.230469 5.34375 C 191.121094 5.34375 208.058594 22.28125 208.058594 43.171875 L 208.058594 49.433594 C 204.59375 45.589844 199.585938 43.171875 194.007812 43.171875 L 189.152344 43.171875 C 189.152344 32.730469 180.6875 24.257812 170.238281 24.257812 C 159.789062 24.257812 151.316406 32.722656 151.316406 43.171875 C 151.316406 56.03125 159.332031 69.246094 179.242188 73.035156 C 166.992188 67.609375 155.96875 58.316406 157.097656 39.265625 C 161.027344 56.835938 181.339844 56.304688 191.78125 58.316406 C 204.015625 60.664062 208.050781 70.550781 208.050781 80.992188 Z M 208.050781 80.992188 "/></g></g></svg>